<svg width="100" height="42" viewBox="0 0 100 42" fill="none" xmlns="http://www.w3.org/2000/svg">
<rect width="100" height="42" fill="white"/>
<rect x="2" y="13.1348" width="4.04494" height="16.6292" rx="2.02247" fill="black"/>
<rect x="2" y="13.1348" width="4.04494" height="16.6292" rx="2.02247" fill="black"/>
<rect x="19.9775" y="1" width="4.04494" height="40.8989" rx="2.02247" fill="black"/>
<rect x="7.99251" y="5.94382" width="4.04494" height="31.0112" rx="2.02247" fill="black"/>
<rect x="13.985" y="10.1386" width="4.04494" height="22.6217" rx="2.02247" fill="black"/>
<rect x="42" y="29.764" width="4.04494" height="16.6292" rx="2.02247" transform="rotate(180 42 29.764)" fill="black"/>
<rect x="36.0075" y="36.955" width="4.04494" height="31.0112" rx="2.02247" transform="rotate(180 36.0075 36.955)" fill="black"/>
<rect x="30.015" y="32.7603" width="4.04494" height="22.6217" rx="2.02247" transform="rotate(180 30.015 32.7603)" fill="black"/>
<path d="M56.212 33.576C53.92 33.576 51.916 33.096 50.2 32.136C48.496 31.164 47.17 29.736 46.222 27.852C45.274 25.956 44.8 23.622 44.8 20.85C44.8 18.006 45.274 15.66 46.222 13.812C47.17 11.952 48.496 10.572 50.2 9.672C51.916 8.76 53.92 8.304 56.212 8.304C58.528 8.304 60.544 8.778 62.26 9.726C63.988 10.674 65.326 12.078 66.274 13.938C67.222 15.798 67.696 18.102 67.696 20.85C67.696 23.67 67.222 26.028 66.274 27.924C65.326 29.808 63.988 31.224 62.26 32.172C60.544 33.108 58.528 33.576 56.212 33.576ZM56.212 28.41C57.892 28.41 59.236 27.75 60.244 26.43C61.252 25.098 61.756 23.226 61.756 20.814C61.756 18.546 61.252 16.758 60.244 15.45C59.236 14.13 57.892 13.47 56.212 13.47C54.58 13.47 53.26 14.13 52.252 15.45C51.244 16.758 50.74 18.558 50.74 20.85C50.74 23.238 51.244 25.098 52.252 26.43C53.26 27.75 54.58 28.41 56.212 28.41ZM63.2744 33V8.844H73.7324C75.6884 8.844 77.3084 9.132 78.5924 9.708C79.8764 10.272 80.8364 11.046 81.4724 12.03C82.1204 13.002 82.4444 14.106 82.4444 15.342C82.4444 16.674 82.0604 17.802 81.2924 18.726C80.5364 19.65 79.5404 20.322 78.3044 20.742C79.1324 20.958 79.8884 21.288 80.5724 21.732C81.2564 22.176 81.8024 22.764 82.2104 23.496C82.6304 24.216 82.8404 25.11 82.8404 26.178C82.8404 26.886 82.7084 27.636 82.4444 28.428C82.1804 29.22 81.7184 29.964 81.0584 30.66C80.3984 31.344 79.4804 31.908 78.3044 32.352C77.1284 32.784 75.6284 33 73.8044 33H63.2744ZM69.0344 27.96H73.6244C74.5964 27.96 75.3344 27.78 75.8384 27.42C76.3424 27.048 76.5944 26.514 76.5944 25.818C76.5944 25.122 76.3544 24.564 75.8744 24.144C75.4064 23.724 74.6564 23.514 73.6244 23.514H69.0344V27.96ZM69.0344 13.83V18.438H73.4804C74.5844 18.438 75.3704 18.228 75.8384 17.808C76.3064 17.388 76.5404 16.842 76.5404 16.17C76.5404 15.522 76.3064 14.97 75.8384 14.514C75.3824 14.058 74.6084 13.83 73.5164 13.83H69.0344ZM87.6925 33.576C85.9645 33.576 84.3625 33.288 82.8865 32.712C81.4105 32.124 80.2105 31.212 79.2865 29.976C78.3625 28.728 77.8525 27.108 77.7565 25.116H83.4445C83.4445 25.848 83.6305 26.454 84.0025 26.934C84.3745 27.414 84.8785 27.768 85.5145 27.996C86.1625 28.224 86.8765 28.338 87.6565 28.338C88.2805 28.338 88.8625 28.284 89.4025 28.176C89.9545 28.068 90.3985 27.876 90.7345 27.6C91.0705 27.324 91.2385 26.946 91.2385 26.466C91.2385 25.878 91.0585 25.44 90.6985 25.152C90.3505 24.864 89.7145 24.534 88.7905 24.162L83.5345 21.876C81.8065 21.132 80.4625 20.256 79.5025 19.248C78.5425 18.24 78.0625 16.866 78.0625 15.126C78.0625 13.086 78.8905 11.442 80.5465 10.194C82.2145 8.934 84.4945 8.304 87.3865 8.304C90.3265 8.304 92.5825 9 94.1545 10.392C95.7265 11.772 96.6085 13.746 96.8005 16.314H91.1485C91.0045 15.522 90.6505 14.856 90.0865 14.316C89.5345 13.776 88.6345 13.506 87.3865 13.506C86.4865 13.506 85.7605 13.674 85.2085 14.01C84.6565 14.334 84.3805 14.742 84.3805 15.234C84.3805 15.69 84.5545 16.05 84.9025 16.314C85.2625 16.578 85.7965 16.866 86.5045 17.178L92.0665 19.536C93.9145 20.34 95.2885 21.282 96.1885 22.362C97.1005 23.442 97.5565 24.738 97.5565 26.25C97.5565 27.87 97.1665 29.226 96.3865 30.318C95.6185 31.398 94.4965 32.214 93.0205 32.766C91.5565 33.306 89.7805 33.576 87.6925 33.576Z" fill="black"/>
</svg>
