<svg width="104" height="42" viewBox="0 0 104 42" fill="none" xmlns="http://www.w3.org/2000/svg">
<rect y="13.1348" width="4.04494" height="16.6292" rx="2.02247" fill="white"/>
<rect y="13.1348" width="4.04494" height="16.6292" rx="2.02247" fill="white"/>
<rect x="17.9775" y="1" width="4.04494" height="40.8989" rx="2.02247" fill="white"/>
<rect x="5.99251" y="5.94382" width="4.04494" height="31.0112" rx="2.02247" fill="white"/>
<rect x="11.985" y="10.1386" width="4.04494" height="22.6217" rx="2.02247" fill="white"/>
<rect x="40" y="29.764" width="4.04494" height="16.6292" rx="2.02247" transform="rotate(180 40 29.764)" fill="white"/>
<rect x="34.0075" y="36.955" width="4.04494" height="31.0112" rx="2.02247" transform="rotate(180 34.0075 36.955)" fill="white"/>
<rect x="28.015" y="32.7603" width="4.04494" height="22.6217" rx="2.02247" transform="rotate(180 28.015 32.7603)" fill="white"/>
<path d="M60.212 33.576C57.92 33.576 55.916 33.096 54.2 32.136C52.496 31.164 51.17 29.736 50.222 27.852C49.274 25.956 48.8 23.622 48.8 20.85C48.8 18.006 49.274 15.66 50.222 13.812C51.17 11.952 52.496 10.572 54.2 9.672C55.916 8.76 57.92 8.304 60.212 8.304C62.528 8.304 64.544 8.778 66.26 9.726C67.988 10.674 69.326 12.078 70.274 13.938C71.222 15.798 71.696 18.102 71.696 20.85C71.696 23.67 71.222 26.028 70.274 27.924C69.326 29.808 67.988 31.224 66.26 32.172C64.544 33.108 62.528 33.576 60.212 33.576ZM60.212 28.41C61.892 28.41 63.236 27.75 64.244 26.43C65.252 25.098 65.756 23.226 65.756 20.814C65.756 18.546 65.252 16.758 64.244 15.45C63.236 14.13 61.892 13.47 60.212 13.47C58.58 13.47 57.26 14.13 56.252 15.45C55.244 16.758 54.74 18.558 54.74 20.85C54.74 23.238 55.244 25.098 56.252 26.43C57.26 27.75 58.58 28.41 60.212 28.41ZM67.2744 33V8.844H77.7324C79.6884 8.844 81.3084 9.132 82.5924 9.708C83.8764 10.272 84.8364 11.046 85.4724 12.03C86.1204 13.002 86.4444 14.106 86.4444 15.342C86.4444 16.674 86.0604 17.802 85.2924 18.726C84.5364 19.65 83.5404 20.322 82.3044 20.742C83.1324 20.958 83.8884 21.288 84.5724 21.732C85.2564 22.176 85.8024 22.764 86.2104 23.496C86.6304 24.216 86.8404 25.11 86.8404 26.178C86.8404 26.886 86.7084 27.636 86.4444 28.428C86.1804 29.22 85.7184 29.964 85.0584 30.66C84.3984 31.344 83.4804 31.908 82.3044 32.352C81.1284 32.784 79.6284 33 77.8044 33H67.2744ZM73.0344 27.96H77.6244C78.5964 27.96 79.3344 27.78 79.8384 27.42C80.3424 27.048 80.5944 26.514 80.5944 25.818C80.5944 25.122 80.3544 24.564 79.8744 24.144C79.4064 23.724 78.6564 23.514 77.6244 23.514H73.0344V27.96ZM73.0344 13.83V18.438H77.4804C78.5844 18.438 79.3704 18.228 79.8384 17.808C80.3064 17.388 80.5404 16.842 80.5404 16.17C80.5404 15.522 80.3064 14.97 79.8384 14.514C79.3824 14.058 78.6084 13.83 77.5164 13.83H73.0344ZM91.6925 33.576C89.9645 33.576 88.3625 33.288 86.8865 32.712C85.4105 32.124 84.2105 31.212 83.2865 29.976C82.3625 28.728 81.8525 27.108 81.7565 25.116H87.4445C87.4445 25.848 87.6305 26.454 88.0025 26.934C88.3745 27.414 88.8785 27.768 89.5145 27.996C90.1625 28.224 90.8765 28.338 91.6565 28.338C92.2805 28.338 92.8625 28.284 93.4025 28.176C93.9545 28.068 94.3985 27.876 94.7345 27.6C95.0705 27.324 95.2385 26.946 95.2385 26.466C95.2385 25.878 95.0585 25.44 94.6985 25.152C94.3505 24.864 93.7145 24.534 92.7905 24.162L87.5345 21.876C85.8065 21.132 84.4625 20.256 83.5025 19.248C82.5425 18.24 82.0625 16.866 82.0625 15.126C82.0625 13.086 82.8905 11.442 84.5465 10.194C86.2145 8.934 88.4945 8.304 91.3865 8.304C94.3265 8.304 96.5825 9 98.1545 10.392C99.7265 11.772 100.609 13.746 100.801 16.314H95.1485C95.0045 15.522 94.6505 14.856 94.0865 14.316C93.5345 13.776 92.6345 13.506 91.3865 13.506C90.4865 13.506 89.7605 13.674 89.2085 14.01C88.6565 14.334 88.3805 14.742 88.3805 15.234C88.3805 15.69 88.5545 16.05 88.9025 16.314C89.2625 16.578 89.7965 16.866 90.5045 17.178L96.0665 19.536C97.9145 20.34 99.2885 21.282 100.189 22.362C101.101 23.442 101.557 24.738 101.557 26.25C101.557 27.87 101.167 29.226 100.387 30.318C99.6185 31.398 98.4965 32.214 97.0205 32.766C95.5565 33.306 93.7805 33.576 91.6925 33.576Z" fill="white"/>
</svg>
